<svg width="21" height="21" viewBox="0 0 21 21" fill="none" xmlns="http://www.w3.org/2000/svg">
<path d="M21 10.5C21 16.2991 16.2991 21 10.5 21C4.70094 21 0 16.2991 0 10.5C0 4.70094 4.70094 0 10.5 0C16.2991 0 21 4.70094 21 10.5Z" fill="#4A7AFF"/>
<path d="M13.71 3.08893V5.46655C13.71 5.46655 10.9802 5.07033 10.9802 6.83144V8.59255H13.4458L13.1377 11.2783H10.9802V18.2788H8.25039V11.2783L5.91682 11.2342V8.59255H8.20633V6.56724C8.20633 6.56724 8.05524 3.55436 11.0242 3.00097C12.2571 2.77105 13.71 3.08893 13.71 3.08893Z" fill="white"/>
</svg>
