<svg width="19" height="19" viewBox="0 0 19 19" fill="none" xmlns="http://www.w3.org/2000/svg">
<g clip-path="url(#clip0_612_66)">
<path d="M1.18748 1.2929C-0.305598 2.84377 -1.51843e-05 4.49123 -1.51843e-05 9.49615C-1.51843e-05 13.6524 -0.725182 17.8189 3.07007 18.7998C4.25519 19.1046 14.7559 19.1046 15.9394 18.7982C17.5196 18.3905 18.8052 17.1088 18.981 14.8739C19.0055 14.562 19.0055 4.43582 18.9802 4.11757C18.7934 1.73702 17.328 0.365066 15.3971 0.0871913C14.9546 0.0230663 14.8659 0.00406627 12.5954 0.000107938C4.54178 0.00406627 2.77636 -0.354559 1.18748 1.2929Z" fill="url(#paint0_linear_612_66)"/>
<path d="M9.49842 2.48504C6.62387 2.48504 3.8942 2.22933 2.85158 4.90517C2.42091 6.01033 2.48345 7.44563 2.48345 9.50079C2.48345 11.3042 2.42566 12.9992 2.85158 14.0956C3.89183 16.773 6.64366 16.5165 9.49683 16.5165C12.2495 16.5165 15.0876 16.8031 16.1429 14.0956C16.5743 12.9794 16.511 11.5655 16.511 9.50079C16.511 6.76004 16.6622 4.99067 15.333 3.66225C13.9872 2.31642 12.1671 2.48504 9.49525 2.48504H9.49842ZM8.86983 3.74933C14.8659 3.73983 15.6291 3.07325 15.2079 12.3334C15.0583 15.6085 12.5645 15.2491 9.49921 15.2491C3.91004 15.2491 3.74933 15.0892 3.74933 9.49763C3.74933 3.84117 4.19266 3.7525 8.86983 3.74775V3.74933ZM13.243 4.91388C12.7783 4.91388 12.4015 5.29071 12.4015 5.75542C12.4015 6.22013 12.7783 6.59696 13.243 6.59696C13.7077 6.59696 14.0845 6.22013 14.0845 5.75542C14.0845 5.29071 13.7077 4.91388 13.243 4.91388ZM9.49842 5.89792C7.50896 5.89792 5.89633 7.51133 5.89633 9.50079C5.89633 11.4903 7.50896 13.1029 9.49842 13.1029C11.4879 13.1029 13.0997 11.4903 13.0997 9.50079C13.0997 7.51133 11.4879 5.89792 9.49842 5.89792ZM9.49842 7.16221C12.5899 7.16221 12.5938 11.8394 9.49842 11.8394C6.40775 11.8394 6.403 7.16221 9.49842 7.16221Z" fill="white"/>
</g>
<defs>
<linearGradient id="paint0_linear_612_66" x1="1.22392" y1="17.7866" x2="18.8824" y2="2.50334" gradientUnits="userSpaceOnUse">
<stop stop-color="#FFDD55"/>
<stop offset="0.5" stop-color="#FF543E"/>
<stop offset="1" stop-color="#C837AB"/>
</linearGradient>
<clipPath id="clip0_612_66">
<rect width="19" height="19" fill="white"/>
</clipPath>
</defs>
</svg>
