<svg width="16" height="15" viewBox="0 0 16 15" fill="none" xmlns="http://www.w3.org/2000/svg">
<path d="M6.89065 0.976601C7.35387 -0.12937 8.92085 -0.129371 9.38408 0.9766L10.5135 3.67313C10.7084 4.13841 11.1461 4.45645 11.6488 4.49801L14.5624 4.73887C15.7574 4.83766 16.2416 6.32795 15.3329 7.11026L13.1174 9.01766C12.7351 9.34678 12.5679 9.86139 12.6837 10.3524L13.355 13.1977C13.6303 14.3648 12.3626 15.2858 11.3377 14.6633L8.83905 13.1457C8.40791 12.8838 7.86682 12.8838 7.43567 13.1457L4.93699 14.6633C3.91216 15.2858 2.64444 14.3648 2.91976 13.1977L3.59103 10.3524C3.70686 9.86139 3.53965 9.34678 3.15736 9.01766L0.941818 7.11026C0.0331209 6.32795 0.517344 4.83766 1.71233 4.73887L4.62589 4.49801C5.12861 4.45645 5.56637 4.13841 5.76124 3.67313L6.89065 0.976601Z" fill="#FFDF6B"/>
</svg>
