<svg width="60" height="60" viewBox="0 0 60 60" fill="none" xmlns="http://www.w3.org/2000/svg">
<path d="M51.9167 31.1765V16.9902C52.3517 17.0822 52.7783 17.2142 53.1911 17.3852C54.0707 17.7496 54.87 18.2836 55.5432 18.9568C56.2164 19.63 56.7504 20.4293 57.1148 21.3089C57.4791 22.1885 57.6667 23.1312 57.6667 24.0833C57.6667 25.0354 57.4791 25.9782 57.1148 26.8578C56.7504 27.7374 56.2164 28.5366 55.5432 29.2099C54.87 29.8831 54.0707 30.4171 53.1911 30.7815C52.7783 30.9524 52.3517 31.0845 51.9167 31.1765ZM48.9167 32.8333V34.3333V44.4047C48.9056 44.3967 48.8946 44.3887 48.8835 44.3806C47.3581 43.2712 45.2288 41.7898 42.8174 40.3058C40.4102 38.8245 37.6957 37.3244 35.0026 36.1905C32.8608 35.2886 30.6542 34.5844 28.5833 34.3415V13.8251C30.6542 13.5823 32.8608 12.878 35.0026 11.9762C37.6957 10.8423 40.4102 9.34216 42.8174 7.86082C45.2288 6.37686 47.3581 4.89544 48.8835 3.78602C48.8946 3.77797 48.9056 3.76994 48.9167 3.76193V13.8333V15.3333V32.8333ZM12.5 13.9167H25.5833V34.25H22.2895H21.25H12.5C9.43998 34.25 6.94112 33.6277 5.21819 32.1732C3.54502 30.7606 2.33331 28.3295 2.33331 24.0833C2.33331 19.8372 3.54502 17.4061 5.21819 15.9935C6.94112 14.5389 9.43998 13.9167 12.5 13.9167ZM19.3728 57.5833L11.7478 37.25H12.5H20.2105L27.8355 57.5833H19.3728Z" stroke="white" stroke-width="3"/>
</svg>
