<svg width="66" height="55" viewBox="0 0 66 55" fill="none" xmlns="http://www.w3.org/2000/svg">
<path d="M39.0084 23.9917L33 21.25L39.0084 18.5084L41.75 12.5L44.4917 18.5084L50.5 21.25L44.4917 23.9917L41.75 30L39.0084 23.9917ZM9.66669 35.8334L12.4084 29.825L18.4167 27.0834L12.4084 24.3417L9.66669 18.3334L6.92502 24.3417L0.916687 27.0834L6.92502 29.825L9.66669 35.8334ZM22.7917 21.25L25.9709 14.2209L33 11.0417L25.9709 7.86254L22.7917 0.833374L19.6125 7.86254L12.5834 11.0417L19.6125 14.2209L22.7917 21.25ZM11.125 54.7917L28.625 37.2625L40.2917 48.9292L65.0834 21.0459L60.9709 16.9334L40.2917 40.1792L28.625 28.5125L6.75002 50.4167L11.125 54.7917Z" fill="white"/>
</svg>
