<svg width="68" height="47" viewBox="0 0 68 47" fill="none" xmlns="http://www.w3.org/2000/svg">
<path d="M67.2363 16.5721L60.5117 3.69426C60.0438 2.80796 59.2484 2.13931 58.2949 1.83068C57.3414 1.52205 56.3051 1.59783 55.4066 2.04188L48.925 5.28239H44.1976L35.0675 1.15129C34.2349 0.774931 33.2952 0.708503 32.4179 0.963987L18.9041 4.90395L12.5937 1.74903C11.6952 1.30492 10.6589 1.22905 9.70536 1.53758C8.75181 1.8461 7.95635 2.51464 7.48833 3.40086L0.763678 16.2792C0.528381 16.7299 0.385205 17.2229 0.342506 17.7295C0.299807 18.2361 0.358441 18.7461 0.514985 19.2298C0.671529 19.7135 0.922848 20.1611 1.25427 20.5466C1.5857 20.9321 1.99059 21.2478 2.44532 21.4751L9.05704 24.7809L23.8735 36.3668C24.2955 36.6976 24.7827 36.9356 25.3031 37.0651L41.1507 41.027C41.4516 41.102 41.7606 41.1398 42.0708 41.1396C43.0883 41.1397 44.0646 40.7372 44.7863 40.0199L54.848 29.9582C54.8562 29.95 54.8633 29.9415 54.8709 29.9333C54.8815 29.9222 54.8919 29.9109 54.9021 29.8994C54.913 29.8877 54.9243 29.8765 54.9349 29.8639L59.0936 24.9989L65.5552 21.7679C66.0099 21.5406 66.4148 21.2249 66.7462 20.8394C67.0776 20.4539 67.3289 20.0062 67.4854 19.5226C67.6419 19.0389 67.7005 18.5289 67.6578 18.0223C67.6151 17.5157 67.4719 17.0227 67.2366 16.5721H67.2363ZM53.4258 26.5793L42.6212 18.7213C42.3374 18.515 41.995 18.405 41.6442 18.4076C41.2933 18.4102 40.9525 18.5252 40.6719 18.7358L37.1719 21.3608C35.9389 22.2781 34.443 22.7735 32.9063 22.7735C31.3695 22.7735 29.8736 22.2781 28.6406 21.3608L27.1583 20.249C27.0957 20.2019 27.044 20.142 27.0065 20.0732C26.9691 20.0044 26.9468 19.9284 26.9413 19.8503C26.9358 19.7721 26.947 19.6937 26.9744 19.6203C27.0017 19.547 27.0445 19.4803 27.0998 19.4248L37.8005 8.72387C37.9033 8.62166 38.0422 8.56408 38.1872 8.56364H43.835L43.8427 8.56418L43.8481 8.56364H48.3183L56.0951 23.4567L53.4258 26.5793ZM3.63669 18.2193C3.61416 18.1502 3.6057 18.0774 3.61181 18.005C3.61791 17.9326 3.63846 17.8622 3.67223 17.7979L10.3969 4.91981C10.4436 4.83125 10.5136 4.75713 10.5994 4.70547C10.6852 4.65381 10.7835 4.62657 10.8836 4.62668C10.9678 4.62653 11.0509 4.64611 11.1261 4.68383L16.4601 7.35067L9.2293 21.1989L3.91258 18.5403C3.84751 18.5079 3.78957 18.4629 3.74219 18.4078C3.6948 18.3527 3.65893 18.2887 3.63669 18.2195V18.2193ZM42.4662 37.6995C42.3992 37.7661 42.3162 37.8144 42.2251 37.8396C42.1341 37.8647 42.0381 37.866 41.9464 37.8433L26.0985 33.8815C26.0242 33.8631 25.9547 33.8292 25.8945 33.782L12.0238 22.9358L19.7897 8.06352L33.3364 4.11399C33.4618 4.07765 33.596 4.08715 33.7151 4.14078L36.809 5.54078C36.3107 5.7323 35.8582 6.02629 35.4807 6.40375L24.7797 17.1047C24.3919 17.4926 24.0919 17.9592 23.9001 18.4731C23.7083 18.9869 23.6292 19.536 23.6681 20.0831C23.707 20.6302 23.863 21.1626 24.1255 21.6441C24.3881 22.1257 24.751 22.5452 25.1898 22.8743L26.6719 23.9855C28.4739 25.3264 30.6601 26.0505 32.9063 26.0505C35.1524 26.0505 37.3386 25.3264 39.1406 23.9855L41.6713 22.0879L51.1697 28.9957L42.4662 37.6995ZM64.3633 18.5124C64.3411 18.5816 64.3052 18.6456 64.2578 18.7007C64.2104 18.7558 64.1525 18.8008 64.0874 18.8331L58.7707 21.4918L51.5399 7.64379L56.8739 4.97668C57.0022 4.91318 57.1503 4.90234 57.2865 4.94648C57.4228 4.99061 57.5364 5.08623 57.6031 5.21293L64.3278 18.0907C64.3615 18.1551 64.3821 18.2256 64.3882 18.298C64.3943 18.3704 64.3858 18.4433 64.3633 18.5124ZM31.2167 45.6021C31.1645 45.8112 31.0717 46.008 30.9435 46.1812C30.8152 46.3543 30.6541 46.5006 30.4694 46.6115C30.2846 46.7223 30.0798 46.7957 29.8666 46.8274C29.6535 46.8591 29.4362 46.8485 29.2272 46.7962L20.9857 44.7359C20.4007 44.5886 19.8584 44.306 19.4025 43.9109L13.236 38.5507C13.072 38.4098 12.9375 38.2378 12.8401 38.0447C12.7428 37.8516 12.6847 37.6411 12.669 37.4255C12.6533 37.2098 12.6804 36.9932 12.7487 36.788C12.817 36.5828 12.9252 36.3932 13.0671 36.23C13.209 36.0668 13.3817 35.9333 13.5754 35.8371C13.7691 35.7409 13.9798 35.6839 14.1956 35.6695C14.4114 35.655 14.6278 35.6833 14.8326 35.7528C15.0374 35.8224 15.2264 35.9317 15.3888 36.0745L21.5556 41.4347C21.621 41.4914 21.6988 41.532 21.7828 41.5531L30.0229 43.6126C30.445 43.7182 30.8078 43.9871 31.0317 44.3602C31.2556 44.7332 31.3221 45.18 31.2167 45.6021Z" fill="white"/>
</svg>
